REM DIRINDEX 1\4,1\2\5,1\2\6,1\2\7,1\3\8,1\3\9,1\3\10,1\3\11
REM DIRNAME folder01,folder02,folder03,folder04,folder05,folder06,folder07,folder08,folder09,folder10,folder11
TITLE ""
FILE "t_j_38.mp3" MP3
  TRACK 01 AUDIO
    TITLE "8:cjc108_2674"
    INDEX 01 00:00:00
  TRACK 02 AUDIO
    TITLE "0:"
    INDEX 01 00:03:27
  TRACK 03 AUDIO
    TITLE "9:cjc108_2675"
    INDEX 01 00:04:36
  TRACK 04 AUDIO
    TITLE "0:"
    INDEX 01 00:05:28
  TRACK 05 AUDIO
    TITLE "10:cjc108_2676"
    INDEX 01 00:05:34
  TRACK 06 AUDIO
    TITLE "0:"
    INDEX 01 00:07:56
  TRACK 07 AUDIO
    TITLE "9:cjc108_2677"
    INDEX 01 00:08:40
  TRACK 08 AUDIO
    TITLE "0:"
    INDEX 01 00:09:36
  TRACK 09 AUDIO
    TITLE "10:cjc108_2678"
    INDEX 01 00:09:47
  TRACK 10 AUDIO
    TITLE "0:"
    INDEX 01 00:11:13
  TRACK 11 AUDIO
    TITLE "11:cjc108_2679"
    INDEX 01 00:11:66
  TRACK 12 AUDIO
    TITLE "0:"
    INDEX 01 00:14:33
  TRACK 13 AUDIO
    TITLE "9:cjc108_2680"
    INDEX 01 00:16:12
  TRACK 14 AUDIO
    TITLE "0:"
    INDEX 01 00:17:37
  TRACK 15 AUDIO
    TITLE "10:cjc108_2681"
    INDEX 01 00:17:43
  TRACK 16 AUDIO
    TITLE "0:"
    INDEX 01 00:19:40
  TRACK 17 AUDIO
    TITLE "9:cjc108_2682"
    INDEX 01 00:20:18
  TRACK 18 AUDIO
    TITLE "0:"
    INDEX 01 00:21:17
  TRACK 19 AUDIO
    TITLE "10:cjc108_2683"
    INDEX 01 00:21:27
  TRACK 20 AUDIO
    TITLE "0:"
    INDEX 01 00:23:59
  TRACK 21 AUDIO
    TITLE "9:cjc108_2684"
    INDEX 01 00:24:37
  TRACK 22 AUDIO
    TITLE "0:"
    INDEX 01 00:26:03
  TRACK 23 AUDIO
    TITLE "10:cjc108_2685"
    INDEX 01 00:26:15
  TRACK 24 AUDIO
    TITLE "0:"
    INDEX 01 00:27:39
  TRACK 25 AUDIO
    TITLE "9:cjc108_2686"
    INDEX 01 00:28:23
  TRACK 26 AUDIO
    TITLE "0:"
    INDEX 01 00:29:27
  TRACK 27 AUDIO
    TITLE "10:cjc108_2687"
    INDEX 01 00:29:36
  TRACK 28 AUDIO
    TITLE "0:"
    INDEX 01 00:30:67
  TRACK 29 AUDIO
    TITLE "11:cjc108_2688"
    INDEX 01 00:31:49
  TRACK 30 AUDIO
    TITLE "0:"
    INDEX 01 00:39:33
  TRACK 31 AUDIO
    TITLE "9:cjc108_2689"
    INDEX 01 00:41:20
  TRACK 32 AUDIO
    TITLE "0:"
    INDEX 01 00:42:23
  TRACK 33 AUDIO
    TITLE "10:cjc108_2690"
    INDEX 01 00:42:35
  TRACK 34 AUDIO
    TITLE "0:"
    INDEX 01 00:44:42
  TRACK 35 AUDIO
    TITLE "11:cjc108_2691"
    INDEX 01 00:45:22
  TRACK 36 AUDIO
    TITLE "0:"
    INDEX 01 00:51:30
  TRACK 37 AUDIO
    TITLE "9:cjc108_2692"
    INDEX 01 00:53:15
  TRACK 38 AUDIO
    TITLE "0:"
    INDEX 01 00:54:21
  TRACK 39 AUDIO
    TITLE "10:cjc108_2693"
    INDEX 01 00:54:46
  TRACK 40 AUDIO
    TITLE "0:"
    INDEX 01 00:57:39
  TRACK 41 AUDIO
    TITLE "9:cjc108_2694"
    INDEX 01 00:58:20
  TRACK 42 AUDIO
    TITLE "0:"
    INDEX 01 00:59:45
  TRACK 43 AUDIO
    TITLE "10:cjc108_2695"
    INDEX 01 00:59:49
  TRACK 44 AUDIO
    TITLE "0:"
    INDEX 01 01:02:14
  TRACK 45 AUDIO
    TITLE "9:cjc108_2696"
    INDEX 01 01:02:67
  TRACK 46 AUDIO
    TITLE "0:"
    INDEX 01 01:04:09
  TRACK 47 AUDIO
    TITLE "10:cjc108_2697"
    INDEX 01 01:04:13
  TRACK 48 AUDIO
    TITLE "0:"
    INDEX 01 01:06:55
  TRACK 49 AUDIO
    TITLE "11:cjc108_2698"
    INDEX 01 01:07:37
  TRACK 50 AUDIO
    TITLE "0:"
    INDEX 01 01:13:55
  TRACK 51 AUDIO
    TITLE "9:cjc108_2699"
    INDEX 01 01:15:39
  TRACK 52 AUDIO
    TITLE "0:"
    INDEX 01 01:16:40
  TRACK 53 AUDIO
    TITLE "10:cjc108_2700"
    INDEX 01 01:16:42
  TRACK 54 AUDIO
    TITLE "0:"
    INDEX 01 01:17:57
  TRACK 55 AUDIO
    TITLE "9:cjc108_2701"
    INDEX 01 01:18:39
  TRACK 56 AUDIO
    TITLE "0:"
    INDEX 01 01:19:66
  TRACK 57 AUDIO
    TITLE "10:cjc108_2702"
    INDEX 01 01:19:70
  TRACK 58 AUDIO
    TITLE "0:"
    INDEX 01 01:20:69
  TRACK 59 AUDIO
    TITLE "11:cjc108_2703"
    INDEX 01 01:21:49
  TRACK 60 AUDIO
    TITLE "0:"
    INDEX 01 01:26:42
  TRACK 61 AUDIO
    TITLE "9:cjc108_2704"
    INDEX 01 01:28:25
  TRACK 62 AUDIO
    TITLE "0:"
    INDEX 01 01:29:33
  TRACK 63 AUDIO
    TITLE "10:cjc108_2705"
    INDEX 01 01:29:39
  TRACK 64 AUDIO
    TITLE "0:"
    INDEX 01 01:30:30
  TRACK 65 AUDIO
    TITLE "11:cjc108_2706"
    INDEX 01 01:31:04
  TRACK 66 AUDIO
    TITLE "0:"
    INDEX 01 01:35:39
